<mxfile host="app.diagrams.net" modified="2024-01-23T12:07:38.625Z" agent="Mozilla/5.0 (Windows NT 10.0; Win64; x64; rv:121.0) Gecko/20100101 Firefox/121.0" version="22.1.21" etag="yta20JjWQuzGgfWur4VX" type="github">
  <diagram name="Seite-1" id="7itORTUB3bLX3umiasWY">
    <mxGraphModel>
      <root>
        <mxCell id="0" />
        <mxCell id="1" parent="0" />
      </root>
    </mxGraphModel>
  </diagram>
</mxfile>
